<svg width="101" height="20" viewBox="0 0 101 20" fill="none" xmlns="http://www.w3.org/2000/svg">
    <path d="M0.622559 0.957886H8.04443V4.31482H6.34766V11.993C6.34766 12.6929 6.42497 13.287 6.57959 13.7753C6.74235 14.2635 6.96615 14.6623 7.25098 14.9716C7.53581 15.2808 7.87354 15.5087 8.26416 15.6552C8.65479 15.7935 9.08203 15.8627 9.5459 15.8627C10.026 15.8627 10.4614 15.8016 10.8521 15.6796C11.2508 15.5575 11.5885 15.35 11.8652 15.057C12.1501 14.7559 12.3657 14.3571 12.5122 13.8607C12.6668 13.3643 12.7441 12.7417 12.7441 11.993V4.31482H10.7788V0.957886H18.2007V4.31482H16.7236V11.517C16.7236 12.8191 16.5365 13.9787 16.1621 14.996C15.7878 16.0051 15.271 16.8596 14.6118 17.5594C13.9608 18.2593 13.1917 18.7924 12.3047 19.1586C11.4258 19.5248 10.4818 19.7079 9.47266 19.7079C8.47168 19.7079 7.53581 19.5288 6.66504 19.1708C5.79427 18.8046 5.03337 18.2797 4.38232 17.5961C3.73942 16.9043 3.23079 16.0661 2.85645 15.0814C2.4821 14.0967 2.29492 12.9818 2.29492 11.7367V4.31482H0.622559V0.957886ZM30.4443 12.1884C30.4443 11.4803 30.2572 10.927 29.8828 10.5282C29.5085 10.1213 29.012 9.91785 28.3936 9.91785C27.9704 9.91785 27.5431 10.0114 27.1118 10.1986C26.6805 10.3858 26.2614 10.7357 25.8545 11.2484V16.119H27.9053V19.4637H20.0439V16.119H21.8994V10.162H20.0684V6.81726H25.8301V7.9281C26.359 7.51306 26.9491 7.18754 27.6001 6.95154C28.2593 6.7074 28.951 6.58533 29.6753 6.58533C31.1971 6.58533 32.369 7.01257 33.1909 7.86707C34.0129 8.71342 34.4238 9.95447 34.4238 11.5902V16.119H36.2183V19.4637H30.4443V12.1884ZM45.3491 0.469604H50.8789V16.119H53.3447V19.4637H47.1191V18.9755C46.6797 19.2033 46.228 19.3824 45.7642 19.5126C45.3084 19.6428 44.8446 19.7079 44.3726 19.7079C43.4041 19.7079 42.513 19.537 41.6992 19.1952C40.8936 18.8453 40.1978 18.3692 39.6118 17.767C39.034 17.1648 38.5824 16.4608 38.2568 15.6552C37.9313 14.8413 37.7686 13.9706 37.7686 13.0428C37.7686 12.1151 37.9272 11.2525 38.2446 10.455C38.5701 9.64929 39.0177 8.94942 39.5874 8.35535C40.1652 7.76127 40.8529 7.29333 41.6504 6.95154C42.4561 6.60974 43.339 6.43884 44.2993 6.43884C44.8283 6.43884 45.3247 6.49174 45.7886 6.59753C46.2524 6.69519 46.696 6.83761 47.1191 7.02478V3.81433H45.3491V0.469604ZM44.5801 16.3387C45.1172 16.3225 45.6014 16.1841 46.0327 15.9237C46.4722 15.6633 46.8343 15.3215 47.1191 14.8983V11.1752C46.8343 10.7439 46.464 10.4102 46.0083 10.1742C45.5607 9.93005 45.0846 9.81205 44.5801 9.82019C44.1569 9.81205 43.7581 9.88529 43.3838 10.0399C43.0176 10.1945 42.6921 10.4143 42.4072 10.6991C42.1305 10.9839 41.9108 11.3257 41.748 11.7245C41.5853 12.1233 41.5039 12.5749 41.5039 13.0795C41.5039 13.5759 41.5853 14.0275 41.748 14.4344C41.9108 14.8332 42.1305 15.175 42.4072 15.4598C42.6921 15.7365 43.0176 15.9481 43.3838 16.0946C43.7581 16.2411 44.1569 16.3225 44.5801 16.3387ZM54.8584 13.0917C54.8584 12.1721 55.0252 11.3094 55.3589 10.5038C55.6925 9.69812 56.1564 8.99418 56.7505 8.39197C57.3446 7.78975 58.0526 7.31368 58.8745 6.96375C59.6965 6.61381 60.5998 6.43884 61.5845 6.43884C62.5692 6.43884 63.4725 6.61381 64.2944 6.96375C65.1245 7.31368 65.8366 7.78975 66.4307 8.39197C67.0247 8.99418 67.4845 9.69812 67.8101 10.5038C68.1437 11.3094 68.3105 12.1721 68.3105 13.0917C68.3105 14.0113 68.1478 14.878 67.8223 15.6918C67.5049 16.4974 67.0492 17.2054 66.4551 17.8158C65.8691 18.418 65.1611 18.8941 64.3311 19.244C63.5091 19.594 62.5936 19.7689 61.5845 19.7689C60.5672 19.7689 59.6436 19.594 58.8135 19.244C57.9915 18.8941 57.2876 18.418 56.7017 17.8158C56.1157 17.2136 55.66 16.5096 55.3345 15.704C55.0171 14.8902 54.8584 14.0194 54.8584 13.0917ZM58.5083 13.0917C58.5083 13.5718 58.5897 14.0153 58.7524 14.4222C58.9152 14.821 59.1349 15.1669 59.4116 15.4598C59.6965 15.7528 60.022 15.9807 60.3882 16.1434C60.7625 16.3062 61.1613 16.3876 61.5845 16.3876C62.0158 16.3876 62.4146 16.3103 62.7808 16.1556C63.1551 15.9929 63.4766 15.765 63.7451 15.472C64.0218 15.1791 64.2375 14.8332 64.3921 14.4344C64.5467 14.0275 64.624 13.58 64.624 13.0917C64.624 12.5871 64.5467 12.1314 64.3921 11.7245C64.2375 11.3176 64.0218 10.9717 63.7451 10.6869C63.4766 10.4021 63.1551 10.1864 62.7808 10.0399C62.4146 9.88529 62.0158 9.81205 61.5845 9.82019C61.1613 9.81205 60.7625 9.88529 60.3882 10.0399C60.022 10.1864 59.6965 10.4021 59.4116 10.6869C59.1349 10.9717 58.9152 11.3176 58.7524 11.7245C58.5897 12.1314 58.5083 12.5871 58.5083 13.0917ZM80.5664 12.1884C80.5664 11.4803 80.3792 10.927 80.0049 10.5282C79.6305 10.1213 79.1341 9.91785 78.5156 9.91785C78.0924 9.91785 77.6652 10.0114 77.2339 10.1986C76.8026 10.3858 76.3835 10.7357 75.9766 11.2484V16.119H78.0273V19.4637H70.166V16.119H72.0215V10.162H70.1904V6.81726H75.9521V7.9281C76.4811 7.51306 77.0711 7.18754 77.7222 6.95154C78.3813 6.7074 79.0731 6.58533 79.7974 6.58533C81.3192 6.58533 82.491 7.01257 83.313 7.86707C84.1349 8.71342 84.5459 9.95447 84.5459 11.5902V16.119H86.3403V19.4637H80.5664V12.1884ZM91.272 13.934L91.3086 14.3124C91.3981 14.6786 91.5487 15 91.7603 15.2767C91.98 15.5534 92.2363 15.7854 92.5293 15.9725C92.8223 16.1597 93.1478 16.3021 93.5059 16.3998C93.8639 16.4893 94.2261 16.5341 94.5923 16.5341C94.9585 16.5341 95.3044 16.5137 95.6299 16.473C95.9635 16.4242 96.285 16.3632 96.5942 16.2899C96.9035 16.2085 97.2046 16.119 97.4976 16.0214C97.7905 15.9156 98.0876 15.8057 98.3887 15.6918L99.7314 18.1942C99.2676 18.479 98.8403 18.7232 98.4497 18.9266C98.0672 19.1219 97.6807 19.2847 97.29 19.4149C96.8994 19.5451 96.4844 19.6387 96.0449 19.6957C95.6055 19.7608 95.0928 19.7933 94.5068 19.7933C93.4082 19.7933 92.4316 19.6143 91.5771 19.2562C90.7227 18.89 90.0024 18.3977 89.4165 17.7792C88.8387 17.1607 88.3952 16.4364 88.0859 15.6063C87.7848 14.7762 87.6343 13.8973 87.6343 12.9696C87.6343 12.0419 87.793 11.1711 88.1104 10.3573C88.4359 9.5435 88.8916 8.83549 89.4775 8.23328C90.0635 7.62292 90.7633 7.14278 91.5771 6.79285C92.391 6.44291 93.2943 6.26794 94.2871 6.26794C95.2799 6.26794 96.1589 6.43477 96.9238 6.76843C97.6969 7.09395 98.348 7.54968 98.877 8.13562C99.4059 8.71342 99.8128 9.39701 100.098 10.1864C100.382 10.9677 100.537 11.8099 100.562 12.7133C100.586 12.9167 100.598 13.1202 100.598 13.3236C100.606 13.5189 100.602 13.7224 100.586 13.934H91.272ZM94.1895 9.3197C93.7337 9.3197 93.3431 9.37667 93.0176 9.4906C92.7002 9.59639 92.4316 9.74695 92.2119 9.94226C91.9922 10.1294 91.8172 10.3451 91.687 10.5892C91.5568 10.8334 91.4551 11.0897 91.3818 11.3583H96.6675C96.6105 11.0816 96.5291 10.8212 96.4233 10.577C96.3175 10.3329 96.1711 10.1172 95.9839 9.93005C95.7967 9.74288 95.5566 9.59639 95.2637 9.4906C94.9788 9.37667 94.6208 9.3197 94.1895 9.3197Z" fill="#181818"/>
</svg>
