<svg width="23" height="18" viewBox="0 0 23 18" fill="none" xmlns="http://www.w3.org/2000/svg">
    <path d="M22.7061 2.10295C21.8711 2.45833 20.9741 2.69844 20.031 2.80698C21.0041 2.24779 21.732 1.36769 22.0791 0.330898C21.1649 0.85242 20.1644 1.21951 19.121 1.41622C18.4194 0.696705 17.4901 0.219797 16.4774 0.0595415C15.4646 -0.100714 14.4251 0.0646488 13.5203 0.529957C12.6154 0.995265 11.8958 1.73448 11.4732 2.63285C11.0506 3.53121 10.9486 4.53845 11.183 5.4982C9.33071 5.40887 7.51865 4.94646 5.86444 4.14097C4.21023 3.33548 2.75085 2.20492 1.581 0.822656C1.181 1.48538 0.951002 2.25375 0.951002 3.07206C0.950556 3.80874 1.13944 4.53412 1.50088 5.18387C1.86233 5.83361 2.38517 6.38762 3.02301 6.79675C2.28328 6.77414 1.55988 6.58216 0.913002 6.23679V6.29442C0.912928 7.32763 1.28504 8.32905 1.96619 9.12875C2.64734 9.92845 3.59558 10.4772 4.65001 10.6818C3.96379 10.8602 3.24435 10.8865 2.54601 10.7587C2.8435 11.6477 3.423 12.4251 4.20338 12.9821C4.98375 13.539 5.92593 13.8477 6.89802 13.8648C5.24785 15.109 3.20989 15.7839 1.112 15.7809C0.740383 15.781 0.369077 15.7602 0 15.7185C2.12948 17.0335 4.60835 17.7315 7.14002 17.7288C15.71 17.7288 20.395 10.9114 20.395 4.99876C20.395 4.80666 20.39 4.61265 20.381 4.42056C21.2923 3.78758 22.079 3.00377 22.7041 2.10584L22.7061 2.10295Z" fill="#EEEEEE"/>
</svg>
